<svg xmlns="http://www.w3.org/2000/svg" xmlns:xlink="http://www.w3.org/1999/xlink" version="1.1" x="0px" y="0px" width="100px" height="100px" viewBox="0 0 100 100" enable-background="new 0 0 100 100" xml:space="preserve">
<g id="Captions">
</g>
<g id="Your_Icon">
	<path d="M88.449,48.677c0-21.229-17.271-38.499-38.499-38.499c-0.136,0-0.266,0.031-0.398,0.04c-0.135-0.009-0.265-0.04-0.4-0.04   c-21.229,0-38.499,17.271-38.499,38.499c0,0.359,0.041,0.709,0.105,1.05c-0.064,0.34-0.105,0.688-0.105,1.049   c0,21.229,17.271,38.499,38.499,38.499c0.136,0,0.266-0.031,0.4-0.041c0.133,0.01,0.263,0.041,0.398,0.041   c21.229,0,38.499-17.271,38.499-38.499c0-0.36-0.041-0.709-0.105-1.049C88.408,49.386,88.449,49.036,88.449,48.677z M77.366,50.775   c0,15.118-12.3,27.417-27.416,27.417c-0.136,0-0.266,0.03-0.398,0.04c-0.135-0.01-0.265-0.04-0.4-0.04   c-15.119,0-27.417-12.299-27.417-27.417c0-0.36-0.04-0.709-0.105-1.049c0.065-0.341,0.105-0.69,0.105-1.05   c0-15.117,12.298-27.416,27.417-27.416c0.136,0,0.266-0.031,0.4-0.041c0.133,0.01,0.263,0.041,0.398,0.041   c15.116,0,27.416,12.299,27.416,27.416c0,0.359,0.041,0.709,0.105,1.05C77.407,50.066,77.366,50.415,77.366,50.775z"/>
	<path d="M66.298,44H55V32.979c0-3.06-2.439-5.541-5.5-5.541S44,29.919,44,32.979V44H32.804c-3.06,0-5.541,2.439-5.541,5.5   s2.481,5.5,5.541,5.5H44v11.473c0,3.06,2.439,5.541,5.5,5.541s5.5-2.481,5.5-5.541V55h11.298c3.06,0,5.541-2.439,5.541-5.5   S69.357,44,66.298,44z"/>
</g>
</svg>